<svg xmlns="http://www.w3.org/2000/svg" xmlns:xlink="http://www.w3.org/1999/xlink" width="800" zoomAndPan="magnify" viewBox="0 0 600 135.000003" height="180" preserveAspectRatio="xMidYMid meet" version="1.0"><defs><g/><clipPath id="fa2b56bfd4"><path d="M 2.207031 0 L 597.792969 0 L 597.792969 134.007812 L 2.207031 134.007812 Z M 2.207031 0 " clip-rule="nonzero"/></clipPath><clipPath id="fe907300fa"><path d="M 8.644531 4 L 62 4 L 62 51 L 8.644531 51 Z M 8.644531 4 " clip-rule="nonzero"/></clipPath><clipPath id="1e8a90b4ea"><path d="M 83 32 L 105.429688 32 L 105.429688 62 L 83 62 Z M 83 32 " clip-rule="nonzero"/></clipPath><clipPath id="9ac862b170"><rect x="0" width="277" y="0" height="83"/></clipPath><clipPath id="fc9ce7532b"><path d="M 201 101 L 314 101 L 314 134.007812 L 201 134.007812 Z M 201 101 " clip-rule="nonzero"/></clipPath><clipPath id="3c48c967d2"><rect x="0" width="113" y="0" height="34"/></clipPath></defs><g clip-path="url(#fa2b56bfd4)"><path fill="#ffffff" d="M 2.207031 0 L 597.792969 0 L 597.792969 134.007812 L 2.207031 134.007812 Z M 2.207031 0 " fill-opacity="1" fill-rule="nonzero"/><path fill="#ffffff" d="M 2.207031 0 L 597.792969 0 L 597.792969 134.007812 L 2.207031 134.007812 Z M 2.207031 0 " fill-opacity="1" fill-rule="nonzero"/></g><g clip-path="url(#fe907300fa)"><path fill="#fbbf24" d="M 22.917969 46.875 L 22.917969 50.207031 L 26.777344 41.777344 C 24.617188 39.332031 23.308594 36.117188 23.308594 32.597656 C 23.308594 24.933594 29.523438 18.71875 37.191406 18.71875 C 44 18.71875 49.660156 23.617188 50.84375 30.082031 L 61.378906 30.082031 L 56.6875 27.375 L 61.914062 18.328125 L 51.464844 18.328125 L 51.464844 7.878906 L 42.414062 13.101562 L 37.191406 4.054688 L 31.96875 13.105469 L 22.917969 7.878906 L 22.917969 18.328125 L 12.46875 18.328125 L 17.691406 27.375 L 8.644531 32.601562 L 17.691406 37.824219 L 12.46875 46.875 Z M 22.917969 46.875 " fill-opacity="1" fill-rule="nonzero"/></g><path fill="#16a34a" d="M 23.949219 54 L 33.636719 54 L 36.53125 47.710938 L 26.828125 47.710938 Z M 23.949219 54 " fill-opacity="1" fill-rule="nonzero"/><path fill="#16a34a" d="M 52.445312 38.148438 L 60.265625 38.148438 L 62.820312 32.601562 L 55 32.601562 Z M 52.445312 38.148438 " fill-opacity="1" fill-rule="nonzero"/><path fill="#16a34a" d="M 31.207031 38.148438 L 40.933594 38.148438 L 43.488281 32.601562 L 33.746094 32.601562 Z M 31.207031 38.148438 " fill-opacity="1" fill-rule="nonzero"/><path fill="#16a34a" d="M 65.53125 47.710938 L 57.710938 47.710938 L 54.816406 54 L 62.636719 54 Z M 65.53125 47.710938 " fill-opacity="1" fill-rule="nonzero"/><path fill="#16a34a" d="M 45.335938 32.601562 L 42.78125 38.148438 L 50.597656 38.148438 L 53.152344 32.601562 Z M 45.335938 32.601562 " fill-opacity="1" fill-rule="nonzero"/><path fill="#16a34a" d="M 39.152344 46.03125 L 46.972656 46.03125 L 49.828125 39.824219 L 42.007812 39.824219 Z M 39.152344 46.03125 " fill-opacity="1" fill-rule="nonzero"/><path fill="#16a34a" d="M 27.597656 46.03125 L 37.304688 46.03125 L 40.160156 39.824219 L 30.4375 39.824219 Z M 27.597656 46.03125 " fill-opacity="1" fill-rule="nonzero"/><path fill="#16a34a" d="M 46.199219 47.710938 L 38.378906 47.710938 L 35.484375 54 L 43.304688 54 Z M 46.199219 47.710938 " fill-opacity="1" fill-rule="nonzero"/><path fill="#16a34a" d="M 69.933594 38.148438 L 72.484375 32.601562 L 64.664062 32.601562 L 62.113281 38.148438 Z M 69.933594 38.148438 " fill-opacity="1" fill-rule="nonzero"/><path fill="#16a34a" d="M 69.160156 39.824219 L 61.339844 39.824219 L 58.484375 46.03125 L 66.304688 46.03125 Z M 69.160156 39.824219 " fill-opacity="1" fill-rule="nonzero"/><path fill="#16a34a" d="M 59.492188 39.824219 L 51.675781 39.824219 L 48.816406 46.03125 L 56.636719 46.03125 Z M 59.492188 39.824219 " fill-opacity="1" fill-rule="nonzero"/><path fill="#16a34a" d="M 64.480469 54 L 73.519531 54 L 76.46875 47.710938 L 67.378906 47.710938 Z M 64.480469 54 " fill-opacity="1" fill-rule="nonzero"/><path fill="#16a34a" d="M 55.863281 47.710938 L 48.042969 47.710938 L 45.152344 54 L 52.96875 54 Z M 55.863281 47.710938 " fill-opacity="1" fill-rule="nonzero"/><path fill="#16a34a" d="M 68.148438 46.03125 L 77.253906 46.03125 L 80.160156 39.824219 L 71.003906 39.824219 Z M 68.148438 46.03125 " fill-opacity="1" fill-rule="nonzero"/><path fill="#16a34a" d="M 71.777344 38.148438 L 80.945312 38.148438 L 83.546875 32.601562 L 74.332031 32.601562 Z M 71.777344 38.148438 " fill-opacity="1" fill-rule="nonzero"/><path fill="#16a34a" d="M 54.042969 55.679688 L 51.15625 61.957031 L 58.972656 61.957031 L 61.867188 55.679688 Z M 54.042969 55.679688 " fill-opacity="1" fill-rule="nonzero"/><path fill="#16a34a" d="M 44.378906 55.679688 L 41.488281 61.957031 L 49.308594 61.957031 L 52.199219 55.679688 Z M 44.378906 55.679688 " fill-opacity="1" fill-rule="nonzero"/><path fill="#16a34a" d="M 34.710938 55.679688 L 31.820312 61.957031 L 39.644531 61.957031 L 42.53125 55.679688 Z M 34.710938 55.679688 " fill-opacity="1" fill-rule="nonzero"/><path fill="#16a34a" d="M 60.820312 61.957031 L 69.792969 61.957031 L 72.734375 55.679688 L 63.710938 55.679688 Z M 60.820312 61.957031 " fill-opacity="1" fill-rule="nonzero"/><path fill="#16a34a" d="M 23.179688 55.679688 L 20.304688 61.957031 L 29.976562 61.957031 L 32.863281 55.679688 Z M 23.179688 55.679688 " fill-opacity="1" fill-rule="nonzero"/><g clip-path="url(#1e8a90b4ea)"><path fill="#16a34a" d="M 85.203125 32.601562 L 83.546875 36.40625 L 101.539062 61.957031 L 105.546875 61.957031 Z M 85.203125 32.601562 " fill-opacity="1" fill-rule="nonzero"/></g><g transform="matrix(1, 0, 0, 1, 29, 44)"><g clip-path="url(#9ac862b170)"><g fill="#16a34a" fill-opacity="1"><g transform="translate(1.337724, 61.997778)"><g><path d="M 40.328125 0 L 30.328125 0 L 13.609375 -25.296875 L 13.609375 0 L 3.625 0 L 3.625 -41.015625 L 13.609375 -41.015625 L 30.328125 -15.609375 L 30.328125 -41.015625 L 40.328125 -41.015625 Z M 40.328125 0 "/></g></g></g><g fill="#16a34a" fill-opacity="1"><g transform="translate(45.28113, 61.997778)"><g><path d="M 23.03125 0.40625 C 19.164062 0.40625 15.625 -0.488281 12.40625 -2.28125 C 9.195312 -4.070312 6.644531 -6.570312 4.75 -9.78125 C 2.863281 -13 1.921875 -16.613281 1.921875 -20.625 C 1.921875 -24.632812 2.863281 -28.238281 4.75 -31.4375 C 6.644531 -34.632812 9.195312 -37.128906 12.40625 -38.921875 C 15.625 -40.710938 19.164062 -41.609375 23.03125 -41.609375 C 26.882812 -41.609375 30.414062 -40.710938 33.625 -38.921875 C 36.84375 -37.128906 39.375 -34.632812 41.21875 -31.4375 C 43.070312 -28.238281 44 -24.632812 44 -20.625 C 44 -16.613281 43.0625 -13 41.1875 -9.78125 C 39.320312 -6.570312 36.789062 -4.070312 33.59375 -2.28125 C 30.40625 -0.488281 26.882812 0.40625 23.03125 0.40625 Z M 23.03125 -8.703125 C 26.300781 -8.703125 28.914062 -9.789062 30.875 -11.96875 C 32.84375 -14.15625 33.828125 -17.039062 33.828125 -20.625 C 33.828125 -24.25 32.84375 -27.140625 30.875 -29.296875 C 28.914062 -31.460938 26.300781 -32.546875 23.03125 -32.546875 C 19.71875 -32.546875 17.078125 -31.472656 15.109375 -29.328125 C 13.140625 -27.191406 12.15625 -24.289062 12.15625 -20.625 C 12.15625 -17 13.140625 -14.101562 15.109375 -11.9375 C 17.078125 -9.78125 19.71875 -8.703125 23.03125 -8.703125 Z M 23.03125 -8.703125 "/></g></g></g><g fill="#16a34a" fill-opacity="1"><g transform="translate(91.211335, 61.997778)"><g><path d="M 24.546875 0 L 16.015625 -15.484375 L 13.609375 -15.484375 L 13.609375 0 L 3.625 0 L 3.625 -41.015625 L 20.390625 -41.015625 C 23.628906 -41.015625 26.382812 -40.453125 28.65625 -39.328125 C 30.9375 -38.203125 32.640625 -36.65625 33.765625 -34.6875 C 34.898438 -32.71875 35.46875 -30.523438 35.46875 -28.109375 C 35.46875 -25.378906 34.695312 -22.941406 33.15625 -20.796875 C 31.625 -18.660156 29.359375 -17.144531 26.359375 -16.25 L 35.828125 0 Z M 13.609375 -22.5625 L 19.8125 -22.5625 C 21.644531 -22.5625 23.015625 -23.007812 23.921875 -23.90625 C 24.835938 -24.800781 25.296875 -26.066406 25.296875 -27.703125 C 25.296875 -29.253906 24.835938 -30.476562 23.921875 -31.375 C 23.015625 -32.269531 21.644531 -32.71875 19.8125 -32.71875 L 13.609375 -32.71875 Z M 13.609375 -22.5625 "/></g></g></g><g fill="#16a34a" fill-opacity="1"><g transform="translate(129.311199, 61.997778)"><g><path d="M 30.328125 -41.015625 L 30.328125 -33.015625 L 13.609375 -33.015625 L 13.609375 -24.375 L 26.125 -24.375 L 26.125 -16.59375 L 13.609375 -16.59375 L 13.609375 0 L 3.625 0 L 3.625 -41.015625 Z M 30.328125 -41.015625 "/></g></g></g><g fill="#16a34a" fill-opacity="1"><g transform="translate(161.275341, 61.997778)"><g><path d="M 23.03125 0.40625 C 19.164062 0.40625 15.625 -0.488281 12.40625 -2.28125 C 9.195312 -4.070312 6.644531 -6.570312 4.75 -9.78125 C 2.863281 -13 1.921875 -16.613281 1.921875 -20.625 C 1.921875 -24.632812 2.863281 -28.238281 4.75 -31.4375 C 6.644531 -34.632812 9.195312 -37.128906 12.40625 -38.921875 C 15.625 -40.710938 19.164062 -41.609375 23.03125 -41.609375 C 26.882812 -41.609375 30.414062 -40.710938 33.625 -38.921875 C 36.84375 -37.128906 39.375 -34.632812 41.21875 -31.4375 C 43.070312 -28.238281 44 -24.632812 44 -20.625 C 44 -16.613281 43.0625 -13 41.1875 -9.78125 C 39.320312 -6.570312 36.789062 -4.070312 33.59375 -2.28125 C 30.40625 -0.488281 26.882812 0.40625 23.03125 0.40625 Z M 23.03125 -8.703125 C 26.300781 -8.703125 28.914062 -9.789062 30.875 -11.96875 C 32.84375 -14.15625 33.828125 -17.039062 33.828125 -20.625 C 33.828125 -24.25 32.84375 -27.140625 30.875 -29.296875 C 28.914062 -31.460938 26.300781 -32.546875 23.03125 -32.546875 C 19.71875 -32.546875 17.078125 -31.472656 15.109375 -29.328125 C 13.140625 -27.191406 12.15625 -24.289062 12.15625 -20.625 C 12.15625 -17 13.140625 -14.101562 15.109375 -11.9375 C 17.078125 -9.78125 19.71875 -8.703125 23.03125 -8.703125 Z M 23.03125 -8.703125 "/></g></g></g><g fill="#16a34a" fill-opacity="1"><g transform="translate(207.205545, 61.997778)"><g><path d="M 13.609375 -7.71875 L 26.703125 -7.71875 L 26.703125 0 L 3.625 0 L 3.625 -41.015625 L 13.609375 -41.015625 Z M 13.609375 -7.71875 "/></g></g></g><g fill="#16a34a" fill-opacity="1"><g transform="translate(235.079224, 61.997778)"><g><path d="M 27.40625 0 L 13.609375 -18.109375 L 13.609375 0 L 3.625 0 L 3.625 -41.015625 L 13.609375 -41.015625 L 13.609375 -23.03125 L 27.296875 -41.015625 L 39.03125 -41.015625 L 23.140625 -20.921875 L 39.625 0 Z M 27.40625 0 "/></g></g></g></g></g><g clip-path="url(#fc9ce7532b)"><g transform="matrix(1, 0, 0, 1, 201, 101)"><g clip-path="url(#3c48c967d2)"><g fill="#fbbf24" fill-opacity="1"><g transform="translate(1.681336, 28.044901)"><g><path d="M 8.046875 0.1875 C 6.804688 0.1875 5.691406 -0.03125 4.703125 -0.46875 C 3.722656 -0.914062 2.953125 -1.53125 2.390625 -2.3125 C 1.835938 -3.09375 1.550781 -3.992188 1.53125 -5.015625 L 4.15625 -5.015625 C 4.25 -4.140625 4.613281 -3.398438 5.25 -2.796875 C 5.882812 -2.191406 6.816406 -1.890625 8.046875 -1.890625 C 9.210938 -1.890625 10.132812 -2.179688 10.8125 -2.765625 C 11.488281 -3.347656 11.828125 -4.097656 11.828125 -5.015625 C 11.828125 -5.742188 11.628906 -6.332031 11.234375 -6.78125 C 10.835938 -7.226562 10.34375 -7.566406 9.75 -7.796875 C 9.15625 -8.035156 8.351562 -8.289062 7.34375 -8.5625 C 6.101562 -8.882812 5.109375 -9.207031 4.359375 -9.53125 C 3.609375 -9.851562 2.96875 -10.359375 2.4375 -11.046875 C 1.90625 -11.742188 1.640625 -12.675781 1.640625 -13.84375 C 1.640625 -14.875 1.898438 -15.785156 2.421875 -16.578125 C 2.953125 -17.367188 3.6875 -17.976562 4.625 -18.40625 C 5.570312 -18.84375 6.660156 -19.0625 7.890625 -19.0625 C 9.648438 -19.0625 11.09375 -18.617188 12.21875 -17.734375 C 13.34375 -16.859375 13.976562 -15.691406 14.125 -14.234375 L 11.421875 -14.234375 C 11.328125 -14.953125 10.945312 -15.582031 10.28125 -16.125 C 9.613281 -16.675781 8.734375 -16.953125 7.640625 -16.953125 C 6.617188 -16.953125 5.78125 -16.6875 5.125 -16.15625 C 4.476562 -15.625 4.15625 -14.882812 4.15625 -13.9375 C 4.15625 -13.25 4.347656 -12.6875 4.734375 -12.25 C 5.117188 -11.820312 5.59375 -11.492188 6.15625 -11.265625 C 6.726562 -11.046875 7.53125 -10.789062 8.5625 -10.5 C 9.800781 -10.15625 10.796875 -9.816406 11.546875 -9.484375 C 12.304688 -9.148438 12.957031 -8.632812 13.5 -7.9375 C 14.039062 -7.25 14.3125 -6.3125 14.3125 -5.125 C 14.3125 -4.207031 14.066406 -3.34375 13.578125 -2.53125 C 13.097656 -1.726562 12.378906 -1.070312 11.421875 -0.5625 C 10.460938 -0.0625 9.335938 0.1875 8.046875 0.1875 Z M 8.046875 0.1875 "/></g></g></g><g fill="#fbbf24" fill-opacity="1"><g transform="translate(22.924512, 28.044901)"><g><path d="M 10.609375 0.1875 C 8.859375 0.1875 7.265625 -0.21875 5.828125 -1.03125 C 4.390625 -1.851562 3.25 -3 2.40625 -4.46875 C 1.570312 -5.9375 1.15625 -7.585938 1.15625 -9.421875 C 1.15625 -11.253906 1.570312 -12.90625 2.40625 -14.375 C 3.25 -15.84375 4.390625 -16.984375 5.828125 -17.796875 C 7.265625 -18.617188 8.859375 -19.03125 10.609375 -19.03125 C 12.367188 -19.03125 13.96875 -18.617188 15.40625 -17.796875 C 16.851562 -16.984375 17.988281 -15.847656 18.8125 -14.390625 C 19.644531 -12.929688 20.0625 -11.273438 20.0625 -9.421875 C 20.0625 -7.566406 19.644531 -5.910156 18.8125 -4.453125 C 17.988281 -2.992188 16.851562 -1.851562 15.40625 -1.03125 C 13.96875 -0.21875 12.367188 0.1875 10.609375 0.1875 Z M 10.609375 -1.9375 C 11.921875 -1.9375 13.101562 -2.242188 14.15625 -2.859375 C 15.207031 -3.472656 16.035156 -4.347656 16.640625 -5.484375 C 17.242188 -6.617188 17.546875 -7.929688 17.546875 -9.421875 C 17.546875 -10.929688 17.242188 -12.25 16.640625 -13.375 C 16.035156 -14.5 15.210938 -15.367188 14.171875 -15.984375 C 13.128906 -16.597656 11.941406 -16.90625 10.609375 -16.90625 C 9.273438 -16.90625 8.085938 -16.597656 7.046875 -15.984375 C 6.003906 -15.367188 5.179688 -14.5 4.578125 -13.375 C 3.972656 -12.25 3.671875 -10.929688 3.671875 -9.421875 C 3.671875 -7.929688 3.972656 -6.617188 4.578125 -5.484375 C 5.179688 -4.347656 6.007812 -3.472656 7.0625 -2.859375 C 8.113281 -2.242188 9.296875 -1.9375 10.609375 -1.9375 Z M 10.609375 -1.9375 "/></g></g></g><g fill="#fbbf24" fill-opacity="1"><g transform="translate(49.538554, 28.044901)"><g><path d="M 4.53125 -2 L 11.125 -2 L 11.125 0 L 2.078125 0 L 2.078125 -18.8125 L 4.53125 -18.8125 Z M 4.53125 -2 "/></g></g></g><g fill="#fbbf24" fill-opacity="1"><g transform="translate(66.598399, 28.044901)"><g><path d="M 13.203125 -4.1875 L 5 -4.1875 L 3.484375 0 L 0.890625 0 L 7.6875 -18.71875 L 10.53125 -18.71875 L 17.3125 0 L 14.71875 0 Z M 12.5 -6.1875 L 9.09375 -15.6875 L 5.703125 -6.1875 Z M 12.5 -6.1875 "/></g></g></g><g fill="#fbbf24" fill-opacity="1"><g transform="translate(90.189643, 28.044901)"><g><path d="M 11.984375 0 L 7.5 -7.6875 L 4.53125 -7.6875 L 4.53125 0 L 2.078125 0 L 2.078125 -18.8125 L 8.15625 -18.8125 C 9.570312 -18.8125 10.769531 -18.566406 11.75 -18.078125 C 12.738281 -17.597656 13.472656 -16.941406 13.953125 -16.109375 C 14.441406 -15.285156 14.6875 -14.34375 14.6875 -13.28125 C 14.6875 -11.988281 14.3125 -10.847656 13.5625 -9.859375 C 12.820312 -8.867188 11.703125 -8.210938 10.203125 -7.890625 L 14.9375 0 Z M 4.53125 -9.671875 L 8.15625 -9.671875 C 9.488281 -9.671875 10.488281 -10 11.15625 -10.65625 C 11.820312 -11.3125 12.15625 -12.1875 12.15625 -13.28125 C 12.15625 -14.394531 11.820312 -15.257812 11.15625 -15.875 C 10.5 -16.488281 9.5 -16.796875 8.15625 -16.796875 L 4.53125 -16.796875 Z M 4.53125 -9.671875 "/></g></g></g></g></g></g></svg>